# xmcd
#
# Track frame offsets:
#	150
#	11041
#	20325
#	36080
#	46372
#	63499
#	78109
#	104402
#	115160
#	127933
#	141055
#	153936
#	175004
#
# Disc length: 2472 seconds
# Revision: 0
# Processed by: cddbd v1.5.2PL0 Copyright (c) Steve Scherf et al.
# Submitted via: dBpowerAMP V12.0
#
DISCID=9b09a60d
DTITLE=Front Porch String Band w/ Claire Lynch - Hills of Alabam
DYEAR=2012
DGENRE=Country
TTITLE0=Hard Times
TTITLE1=I Found You
TTITLE2=Some Morning Soon
TTITLE3=Where Dear Friends Will Never Part
TTITLE4=The Day That Lester Died
TTITLE5=Hills of Alabam
TTITLE6=Wabash Cannonball
TTITLE7=Go My Way
TTITLE8=Natchez Trace
TTITLE9=The Singer
TTITLE10=Living In Our Country World
TTITLE11=Kennesaw Line
TTITLE12=Come Unto Me
EXTD=
EXTT0=
EXTT1=
EXTT2=
EXTT3=
EXTT4=
EXTT5=
EXTT6=
EXTT7=
EXTT8=
EXTT9=
EXTT10=
EXTT11=
EXTT12=
PLAYORDER=
